<svg width="114" height="34" viewBox="0 0 114 34" fill="none" xmlns="http://www.w3.org/2000/svg">
<path d="M-1 13.2564V15.8564H1.5V13.2564H-1Z" fill="black"/>
<path d="M10.6 4.85645C9 4.85645 7.8 5.55645 7 6.55645H6.9V0.356445H4.9V15.8564H6.9V10.5564C6.9 8.45645 8.2 6.95645 10.2 6.95645C12 6.95645 13.1 8.35645 13.1 10.1564V15.8564H15.1V9.75644C15.2 6.75644 13.3 4.85645 10.6 4.85645Z" fill="black"/>
<path d="M25.6 5.15645H20.8V1.45645H18.8V5.25645H16.9V7.25645H18.8V13.2564C18.8 14.9564 19.8 15.9564 21.5 15.9564H25.6V13.9564H21.9C21.2 13.9564 20.8 13.5564 20.8 12.8564V7.15645H25.6V5.15645Z" fill="black"/>
<path d="M40.1 4.95645C38.5 4.95645 37.2 5.75644 36.6 7.05645H36.5C35.9 5.85645 34.7 4.95645 33.1 4.95645C31.7 4.95645 30.6 5.75645 30 6.75645H29.9V5.15645H28V15.7564H30V10.3564C30 8.35645 31 6.85645 32.6 6.85645C34.1 6.85645 35 7.85645 35 9.45645V15.7564H37V10.1564C37 7.75645 38.4 6.85645 39.6 6.85645C41.1 6.85645 42 7.85645 42 9.45645V15.7564H44V9.25644C44.1 6.75644 42.6 4.95645 40.1 4.95645Z" fill="black"/>
<path d="M46.8 13.0564C46.8 14.7564 47.8 15.7564 49.6 15.7564H51.6V13.7564H49.9C49.2 13.7564 48.8 13.3564 48.8 12.6564V0.356445H46.8V13.0564Z" fill="black"/>
<path d="M27.9 20.0564C27 18.9564 25.7 18.2564 24 18.2564C20.9 18.2564 18.6 20.5564 18.6 23.8564C18.6 27.1564 20.9 29.4564 24 29.4564C25.8 29.4564 27 28.6564 27.8 27.5564H27.9V29.1564H29.9V18.5564H27.9V20.0564ZM24.3 27.4564C22.1 27.4564 20.7 25.8564 20.7 23.8564C20.7 21.8564 22.1 20.2564 24.3 20.2564C26.5 20.2564 27.9 21.8564 27.9 23.8564C27.9 25.7564 26.5 27.4564 24.3 27.4564Z" fill="black"/>
<path d="M43.2 22.3564C42.7 19.9564 40.6 18.2564 37.8 18.2564C34.4 18.2564 32.2 20.7564 32.2 23.8564C32.2 26.9564 34.4 29.4564 37.8 29.4564C40.6 29.4564 42.7 27.6564 43.2 25.2564H41.1C40.7 26.5564 39.4 27.5564 37.8 27.5564C35.6 27.5564 34.2 25.9564 34.2 23.9564C34.2 21.9564 35.6 20.3564 37.8 20.3564C39.4 20.3564 40.6 21.3564 41.1 22.5564H43.2V22.3564Z" fill="black"/>
<path d="M54.1 20.0564C53.2 18.9564 51.9 18.2564 50.2 18.2564C47.1 18.2564 44.8 20.5564 44.8 23.8564C44.8 27.1564 47.1 29.4564 50.2 29.4564C52 29.4564 53.2 28.6564 54 27.5564H54.1V29.1564H56.1V18.5564H54.1V20.0564ZM50.5 27.4564C48.3 27.4564 46.9 25.8564 46.9 23.8564C46.9 21.8564 48.3 20.2564 50.5 20.2564C52.7 20.2564 54.1 21.8564 54.1 23.8564C54.1 25.7564 52.6 27.4564 50.5 27.4564Z" fill="black"/>
<path d="M67.7 20.1564C66.8 19.0564 65.5 18.2564 63.8 18.2564C60.7 18.2564 58.4 20.5564 58.4 23.8564C58.4 27.1564 60.6 29.4564 63.8 29.4564C65.5 29.4564 66.8 28.6564 67.6 27.6564H67.7V29.1564H69.7V13.7564H67.7V20.1564ZM64.1 27.4564C61.9 27.4564 60.5 25.8564 60.5 23.8564C60.5 21.8564 61.9 20.2564 64.1 20.2564C66.3 20.2564 67.7 21.8564 67.7 23.8564C67.6 25.8564 66.2 27.4564 64.1 27.4564Z" fill="black"/>
<path d="M77.3 18.2564C74 18.2564 71.8 20.7564 71.8 23.8564C71.8 26.8564 73.9 29.4564 77.3 29.4564C79.8 29.4564 81.8 28.1564 82.5 25.8564H80.4C79.9 26.8564 78.8 27.4564 77.4 27.4564C75.5 27.4564 74.1 26.1564 74 24.5564H82.8C83 20.9564 80.8 18.2564 77.3 18.2564ZM77.3 20.1564C79 20.1564 80.3 21.1564 80.6 22.7564H74.1C74.4 21.2564 75.6 20.1564 77.3 20.1564Z" fill="black"/>
<path d="M97.2 18.2564C95.6 18.2564 94.3 19.0564 93.6 20.2564H93.5C92.9 19.0564 91.7 18.2564 90.1 18.2564C88.7 18.2564 87.6 18.9564 87 20.0564V18.5564H85.1V29.1564H87.1V23.7564C87.1 21.7564 88.1 20.3564 89.7 20.2564C91.2 20.2564 92.1 21.2564 92.1 22.8564V29.1564H94.1V23.5564C94.1 21.1564 95.5 20.2564 96.7 20.2564C98.2 20.2564 99.1 21.2564 99.1 22.8564V29.1564H101.1V22.6564C101.2 20.0564 99.7 18.2564 97.2 18.2564Z" fill="black"/>
<path d="M108.4 27.3564L104.8 18.4564H102.6L107.4 30.0564C107.1 30.9564 106.7 31.2564 105.7 31.2564H103.2V33.2564H105.7C107.5 33.2564 108.5 32.4564 109.2 30.6564L113.9 18.4564H111.8L108.4 27.3564Z" fill="black"/>
</svg>
